<svg xmlns="http://www.w3.org/2000/svg" viewBox="0 0 64 64">
  <defs>
    <linearGradient id="bg" x1="0" y1="0" x2="1" y2="1">
      <stop offset="0" stop-color="#3b1f66"/>
      <stop offset="1" stop-color="#7a2fa8"/>
    </linearGradient>
    <linearGradient id="peel" x1="0" y1="0" x2="1" y2="1">
      <stop offset="0" stop-color="#ffe259"/>
      <stop offset="1" stop-color="#f0a13a"/>
    </linearGradient>
  </defs>
  <rect width="64" height="64" rx="14" fill="url(#bg)"/>
  <!-- banana -->
  <path d="M18 14 C16 30 24 44 42 48 C48 49.5 52 47 53 44
           C46 46 36 43 29 35 C23 28 20 20 21.5 13.5 Z"
        fill="url(#peel)" stroke="#8a5a1a" stroke-width="1.5" stroke-linejoin="round"/>
  <path d="M18 14 L21.5 13.5 L21 10.5 C21 9 18.5 9 18.2 10.5 Z" fill="#7a5a24"/>
  <path d="M53 44 C52 46.5 48.5 49 44 48.6 L46 51 C49 52 53 49 53.5 45.5 Z" fill="#7a5a24"/>
  <!-- eyes -->
  <ellipse cx="30" cy="27" rx="3" ry="3.6" fill="#fff"/>
  <ellipse cx="38" cy="33" rx="3" ry="3.6" fill="#fff"/>
  <circle cx="30.6" cy="27.8" r="1.5" fill="#1a1a24"/>
  <circle cx="38.6" cy="33.8" r="1.5" fill="#1a1a24"/>
</svg>
